<svg id="Layer_1" data-name="Layer 1" xmlns="http://www.w3.org/2000/svg" viewBox="0 0 512 512"><title>caduceus-flat</title><circle cx="256" cy="256" r="256" fill="#f3eeda"/><path d="M231.56,266.84a10.29,10.29,0,0,1-3.06-20.11l47.95-15a10.35,10.35,0,0,1,3.07-.47,10.29,10.29,0,0,1,3.06,20.11l-48,15A10.17,10.17,0,0,1,231.56,266.84Z" fill="#98d3cb"/><path d="M235,298.53a9.21,9.21,0,0,1-2.73-18l41.06-12.82a9.19,9.19,0,0,1,11.54,6,9.23,9.23,0,0,1-6,11.54l-41.08,12.8A9,9,0,0,1,235,298.53Z" fill="#98d3cb"/><path d="M238.45,330.22A8.14,8.14,0,0,1,236,314.32l34.19-10.68a8.32,8.32,0,0,1,2.43-.37,8.14,8.14,0,0,1,2.42,15.92l-34.19,10.67A8.1,8.1,0,0,1,238.45,330.22Z" fill="#98d3cb"/><path d="M241.89,361.91a7.07,7.07,0,0,1-2.11-13.81l27.32-8.52a7.06,7.06,0,1,1,4.21,13.49L244,361.6A7.3,7.3,0,0,1,241.89,361.91Z" fill="#98d3cb"/><path d="M274.56,156.44a18.56,18.56,0,1,0-28.49,15.64h-.46l2.62,65.55,15.43-4.82,2.75-60.73h-.46A18.5,18.5,0,0,0,274.56,156.44Z" fill="#98d3cb"/><polygon points="250.97 306.7 260.44 303.74 260.89 293.83 250.59 297.05 250.97 306.7" fill="#98d3cb"/><polygon points="252.34 341.23 258.84 339.2 259.39 327.02 251.88 329.37 252.34 341.23" fill="#98d3cb"/><polygon points="253.66 374.12 257.26 374.12 257.88 360.21 253.16 361.68 253.66 374.12" fill="#98d3cb"/><polygon points="249.59 272.16 262.05 268.26 262.4 260.64 249.29 264.73 249.59 272.16" fill="#98d3cb"/><path d="M238.95,187.74s-13.31-4.43-13.22-24.61-121.95-8.92-121.95-8.92-3.76,13.51,13.15,15.2c0,0,1.4,14.84,13.14,16.24,0,0-.47,18.77,28.16,16.9,0,0-11.57,20.89,82.77,16.19Z" fill="#98d3cb"/><path d="M273.05,187.74s13.31-4.43,13.23-24.61,121.94-8.92,121.94-8.92,3.76,13.51-13.14,15.2c0,0-1.4,14.84-13.15,16.24,0,0,.48,18.77-28.16,16.9,0,0,11.58,20.89-82.77,16.19Z" fill="#98d3cb"/></svg>